<?xml version="1.0" encoding="UTF-8" standalone="no"?><!DOCTYPE svg PUBLIC "-//W3C//DTD SVG 1.1//EN" "http://www.w3.org/Graphics/SVG/1.1/DTD/svg11.dtd"><svg width="100%" height="100%" viewBox="0 0 480 480" version="1.1" xmlns="http://www.w3.org/2000/svg" xmlns:xlink="http://www.w3.org/1999/xlink" xml:space="preserve" xmlns:serif="http://www.serif.com/" style="fill-rule:evenodd;clip-rule:evenodd;stroke-linecap:round;stroke-linejoin:round;stroke-miterlimit:1.5;"><path d="M262.991,41.589c105.189,0 190.589,85.4 190.589,190.589c0,105.189 -85.4,190.589 -190.589,190.589c-105.189,0 -190.589,-85.4 -190.589,-190.589c-0,-105.189 85.4,-190.589 190.589,-190.589Zm0,7.04c-101.304,0 -183.549,82.246 -183.549,183.549c-0,101.304 82.246,183.549 183.549,183.549c101.304,0 183.549,-82.246 183.549,-183.549c0,-101.304 -82.246,-183.549 -183.549,-183.549Z" style="fill:#ffd700;stroke:#8b0000;stroke-width:3px;"/><path d="M262.991,98.869c73.575,0 133.309,59.734 133.309,133.309c0,73.575 -59.734,133.309 -133.309,133.309c-73.575,0 -133.309,-59.734 -133.309,-133.309c0,-73.575 59.734,-133.309 133.309,-133.309Zm0,4.924c-70.858,0 -128.385,57.527 -128.385,128.385c0,70.858 57.527,128.385 128.385,128.385c70.858,0 128.385,-57.527 128.385,-128.385c0,-70.858 -57.527,-128.385 -128.385,-128.385Z" style="fill:#ffd700;stroke:#8b0000;stroke-width:3px;"/><path d="M83.788,359.572l-0.631,-0.631c0,0 234.263,-232.376 279.526,-279.796c4.3,-4.505 -2.683,-7.726 -2.683,-7.726c0,0 1.337,-2.932 9.474,-9.358c13.653,-10.782 26.349,-11.509 26.349,-11.509c0,0 -0.463,12.96 -11.245,26.612c-6.459,8.178 -9.622,9.211 -9.622,9.211c0,0 -3.366,-7.084 -7.997,-2.433c-46.245,46.45 -279.265,279.535 -279.265,279.535l-0.738,-0.738l0.726,-3.894l-3.894,0.726Z" style="fill:#ffd700;stroke:#8b0000;stroke-width:3px;"/><path d="M96.262,331.611l23.915,-9.165l-33.546,33.546l-23.915,9.165l33.546,-33.546Z" style="fill:#ffd400;stroke:#8b0000;stroke-width:3px;"/><path d="M115.265,350.614l9.165,-23.915l-33.546,33.546l-9.165,23.915l33.546,-33.546Z" style="fill:#ffd400;stroke:#8b0000;stroke-width:3px;"/><path d="M127.746,403.53l-0.631,-0.631c0,0 234.263,-232.376 279.526,-279.796c4.3,-4.505 -2.683,-7.726 -2.683,-7.726c0,0 1.337,-2.932 9.474,-9.358c13.653,-10.782 26.349,-11.509 26.349,-11.509c0,0 -0.463,12.96 -11.245,26.612c-6.459,8.178 -9.622,9.211 -9.622,9.211c0,0 -3.366,-7.084 -7.997,-2.433c-46.245,46.45 -279.265,279.535 -279.265,279.535l-0.738,-0.738l0.726,-3.894l-3.894,0.726Z" style="fill:#ffd700;stroke:#8b0000;stroke-width:3px;"/><path d="M140.22,375.568l23.915,-9.165l-33.546,33.546l-23.915,9.165l33.546,-33.546Z" style="fill:#ffd700;stroke:#8b0000;stroke-width:3px;"/><path d="M159.223,394.572l9.165,-23.915l-33.546,33.546l-9.165,23.915l33.546,-33.546Z" style="fill:#ffd400;stroke:#8b0000;stroke-width:3px;"/></svg>